<svg width="189" height="109" viewBox="0 0 189 109" fill="none" xmlns="http://www.w3.org/2000/svg">
<g clip-path="url(#clip0_98_1339)">
<path d="M41.2343 95.8851C46.6341 95.8851 51.0114 91.5078 51.0114 86.1081C51.0114 80.7083 46.6341 76.331 41.2343 76.331C35.8346 76.331 31.4573 80.7083 31.4573 86.1081C31.4573 91.5078 35.8346 95.8851 41.2343 95.8851Z" fill="#2D65B0"/>
<path d="M42.8242 94.4543C48.2239 94.4543 52.6012 90.077 52.6012 84.6773C52.6012 79.2775 48.2239 74.9002 42.8242 74.9002C37.4245 74.9002 33.0471 79.2775 33.0471 84.6773C33.0471 90.077 37.4245 94.4543 42.8242 94.4543Z" fill="#F5F5F6"/>
<path d="M171.667 73.8591H50.698V74.1891H171.667V73.8591Z" fill="#3F3D56"/>
<path d="M113.348 3.07819H70.4115V2.19324H50.9425V3.07819H7.82913C7.44773 3.07819 7.07006 3.15331 6.71769 3.29927C6.36532 3.44523 6.04515 3.65916 5.77546 3.92885C5.50577 4.19854 5.29184 4.51871 5.14588 4.87108C4.99993 5.22345 4.9248 5.60111 4.9248 5.98252V64.7756C4.9248 65.5459 5.23079 66.2846 5.77546 66.8293C6.32013 67.374 7.05885 67.68 7.82913 67.68H113.348C114.118 67.68 114.857 67.374 115.402 66.8293C115.946 66.2846 116.252 65.5459 116.252 64.7756V5.98252C116.252 5.60111 116.177 5.22345 116.031 4.87108C115.885 4.51871 115.671 4.19854 115.402 3.92885C115.132 3.65916 114.812 3.44523 114.459 3.29927C114.107 3.15331 113.729 3.07819 113.348 3.07819Z" fill="#3F3D56"/>
<path d="M112.358 8.21094H8.8186V66.618H112.358V8.21094Z" fill="#F5F5F6"/>
<path d="M60.4999 6.61803C61.0864 6.61803 61.5619 6.14258 61.5619 5.55609C61.5619 4.96959 61.0864 4.49414 60.4999 4.49414C59.9134 4.49414 59.438 4.96959 59.438 5.55609C59.438 6.14258 59.9134 6.61803 60.4999 6.61803Z" fill="#F5F5F6"/>
<path opacity="0.1" d="M82.7478 66.6181H8.8186V8.211L82.7478 66.6181Z" fill="black"/>
<path d="M25.0195 62.2474C30.5161 62.2474 34.972 57.7915 34.972 52.2949C34.972 46.7982 30.5161 42.3423 25.0195 42.3423C19.5228 42.3423 15.0669 46.7982 15.0669 52.2949C15.0669 57.7915 19.5228 62.2474 25.0195 62.2474Z" fill="#2D65B0"/>
<path d="M94.3304 39.7104H84.6587V41.7314H94.3304V39.7104Z" fill="#3F3D56"/>
<path d="M106.023 23.9757H72.9661V24.8418H106.023V23.9757Z" fill="#3F3D56"/>
<path d="M106.023 26.7184H72.9661V27.5846H106.023V26.7184Z" fill="#3F3D56"/>
<path d="M106.023 29.4612H72.9661V30.3273H106.023V29.4612Z" fill="#3F3D56"/>
<path d="M106.023 32.2039H72.9661V33.07H106.023V32.2039Z" fill="#3F3D56"/>
<path d="M106.023 34.9467H72.9661V35.8128H106.023V34.9467Z" fill="#3F3D56"/>
<path d="M106.023 9.39594H101.981V13.4379H106.023V9.39594Z" fill="#2D65B0"/>
<path d="M107.9 15.3144H102.992V10.4064H107.9V15.3144ZM103.205 15.101H107.686V10.6198H103.205V15.101Z" fill="#3F3D56"/>
<path d="M119.159 65.5561H109.055V64.8281C109.055 64.8091 109.051 64.7903 109.044 64.7728C109.036 64.7553 109.026 64.7394 109.012 64.726C108.999 64.7126 108.983 64.702 108.965 64.6947C108.948 64.6875 108.929 64.6837 108.91 64.6837H105.446C105.427 64.6837 105.408 64.6875 105.39 64.6947C105.373 64.702 105.357 64.7126 105.344 64.726C105.33 64.7394 105.32 64.7553 105.312 64.7728C105.305 64.7903 105.301 64.8091 105.301 64.8281V65.5561H103.136V64.8281C103.136 64.8091 103.132 64.7903 103.125 64.7728C103.118 64.7553 103.107 64.7394 103.094 64.726C103.08 64.7126 103.064 64.702 103.047 64.6947C103.029 64.6875 103.011 64.6837 102.992 64.6837H99.5272C99.5082 64.6837 99.4895 64.6875 99.4719 64.6947C99.4544 64.702 99.4385 64.7126 99.4251 64.726C99.4117 64.7394 99.4011 64.7553 99.3938 64.7728C99.3866 64.7903 99.3828 64.8091 99.3828 64.8281V65.5561H97.2175V64.8281C97.2175 64.8091 97.2138 64.7903 97.2065 64.7728C97.1993 64.7553 97.1886 64.7394 97.1752 64.726C97.1618 64.7126 97.1459 64.702 97.1284 64.6947C97.1109 64.6875 97.0921 64.6837 97.0732 64.6837H93.6087C93.5897 64.6837 93.5709 64.6875 93.5534 64.6947C93.5359 64.702 93.52 64.7126 93.5066 64.726C93.4932 64.7394 93.4826 64.7553 93.4753 64.7728C93.468 64.7903 93.4643 64.8091 93.4643 64.8281V65.5561H91.299V64.8281C91.299 64.8091 91.2952 64.7903 91.288 64.7728C91.2807 64.7553 91.2701 64.7394 91.2567 64.726C91.2433 64.7126 91.2274 64.702 91.2099 64.6947C91.1924 64.6875 91.1736 64.6837 91.1546 64.6837H87.6901C87.6712 64.6837 87.6524 64.6875 87.6349 64.6947C87.6174 64.702 87.6014 64.7126 87.588 64.726C87.5746 64.7394 87.564 64.7553 87.5567 64.7728C87.5495 64.7903 87.5458 64.8091 87.5458 64.8281V65.5561H85.3804V64.8281C85.3804 64.8091 85.3767 64.7903 85.3695 64.7728C85.3622 64.7553 85.3516 64.7394 85.3382 64.726C85.3248 64.7126 85.3089 64.702 85.2913 64.6947C85.2738 64.6875 85.2551 64.6837 85.2361 64.6837H81.7716C81.7526 64.6837 81.7339 64.6875 81.7163 64.6947C81.6988 64.702 81.6829 64.7126 81.6695 64.726C81.6561 64.7394 81.6455 64.7553 81.6382 64.7728C81.631 64.7903 81.6272 64.8091 81.6272 64.8281V65.5561H79.4619V64.8281C79.4619 64.8091 79.4582 64.7903 79.4509 64.7728C79.4437 64.7553 79.433 64.7394 79.4196 64.726C79.4062 64.7126 79.3903 64.702 79.3728 64.6947C79.3553 64.6875 79.3365 64.6837 79.3176 64.6837H75.8531C75.8341 64.6837 75.8153 64.6875 75.7978 64.6947C75.7803 64.702 75.7644 64.7126 75.751 64.726C75.7376 64.7394 75.7269 64.7553 75.7197 64.7728C75.7124 64.7903 75.7087 64.8091 75.7087 64.8281V65.5561H73.5434V64.8281C73.5434 64.8091 73.5396 64.7903 73.5324 64.7728C73.5251 64.7553 73.5145 64.7394 73.5011 64.726C73.4877 64.7126 73.4718 64.702 73.4543 64.6947C73.4368 64.6875 73.418 64.6837 73.399 64.6837H46.2604C46.2414 64.6837 46.2227 64.6875 46.2051 64.6947C46.1876 64.702 46.1717 64.7126 46.1583 64.726C46.1449 64.7394 46.1343 64.7553 46.127 64.7728C46.1198 64.7903 46.116 64.8091 46.116 64.8281V65.5561H43.9507V64.8281C43.9507 64.8091 43.947 64.7903 43.9397 64.7728C43.9325 64.7553 43.9218 64.7394 43.9084 64.726C43.895 64.7126 43.8791 64.702 43.8616 64.6947C43.8441 64.6875 43.8253 64.6837 43.8064 64.6837H40.3418C40.3229 64.6837 40.3041 64.6875 40.2866 64.6947C40.2691 64.702 40.2532 64.7126 40.2398 64.726C40.2264 64.7394 40.2157 64.7553 40.2085 64.7728C40.2012 64.7903 40.1975 64.8091 40.1975 64.8281V65.5561H38.0322V64.8281C38.0322 64.8091 38.0284 64.7903 38.0212 64.7728C38.0139 64.7553 38.0033 64.7394 37.9899 64.726C37.9765 64.7126 37.9606 64.702 37.9431 64.6947C37.9255 64.6875 37.9068 64.6837 37.8878 64.6837H34.4233C34.4044 64.6837 34.3856 64.6875 34.3681 64.6947C34.3506 64.702 34.3346 64.7126 34.3212 64.726C34.3078 64.7394 34.2972 64.7553 34.2899 64.7728C34.2827 64.7903 34.279 64.8091 34.279 64.8281V65.5561H32.1136V64.8281C32.1136 64.8091 32.1099 64.7903 32.1026 64.7728C32.0954 64.7553 32.0848 64.7394 32.0714 64.726C32.058 64.7126 32.042 64.702 32.0245 64.6947C32.007 64.6875 31.9882 64.6837 31.9693 64.6837H28.5048C28.4858 64.6837 28.467 64.6875 28.4495 64.6947C28.432 64.702 28.4161 64.7126 28.4027 64.726C28.3893 64.7394 28.3787 64.7553 28.3714 64.7728C28.3642 64.7903 28.3604 64.8091 28.3604 64.8281V65.5561H26.1951V64.8281C26.1951 64.8091 26.1914 64.7903 26.1841 64.7728C26.1769 64.7553 26.1662 64.7394 26.1528 64.726C26.1394 64.7126 26.1235 64.702 26.106 64.6947C26.0885 64.6875 26.0697 64.6837 26.0508 64.6837H22.5862C22.5673 64.6837 22.5485 64.6875 22.531 64.6947C22.5135 64.702 22.4976 64.7126 22.4842 64.726C22.4708 64.7394 22.4601 64.7553 22.4529 64.7728C22.4456 64.7903 22.4419 64.8091 22.4419 64.8281V65.5561H20.2766V64.8281C20.2766 64.8091 20.2728 64.7903 20.2656 64.7728C20.2583 64.7553 20.2477 64.7394 20.2343 64.726C20.2209 64.7126 20.205 64.702 20.1875 64.6947C20.1699 64.6875 20.1512 64.6837 20.1322 64.6837H16.6677C16.6487 64.6837 16.63 64.6875 16.6125 64.6947C16.5949 64.702 16.579 64.7126 16.5656 64.726C16.5522 64.7394 16.5416 64.7553 16.5343 64.7728C16.5271 64.7903 16.5233 64.8091 16.5233 64.8281V65.5561H14.358V64.8281C14.358 64.8091 14.3543 64.7903 14.347 64.7728C14.3398 64.7553 14.3292 64.7394 14.3158 64.726C14.3023 64.7126 14.2864 64.702 14.2689 64.6947C14.2514 64.6875 14.2326 64.6837 14.2137 64.6837H10.7492C10.7302 64.6837 10.7114 64.6875 10.6939 64.6947C10.6764 64.702 10.6605 64.7126 10.6471 64.726C10.6337 64.7394 10.6231 64.7553 10.6158 64.7728C10.6085 64.7903 10.6048 64.8091 10.6048 64.8281V65.5561H3.96451C3.04566 65.5561 2.16445 65.9211 1.51473 66.5709C0.865011 67.2206 0.500001 68.1018 0.5 69.0206V70.5872C0.500003 71.5061 0.865014 72.3873 1.51473 73.037C2.16446 73.6867 3.04567 74.0517 3.96451 74.0517H119.159C120.078 74.0517 120.959 73.6867 121.609 73.037C122.259 72.3873 122.624 71.5061 122.624 70.5872V69.0206C122.624 68.1018 122.259 67.2206 121.609 66.5709C120.959 65.9211 120.078 65.5561 119.159 65.5561Z" fill="#3F3D56"/>
<path d="M27.4284 58.5111C24.9478 58.5111 22.5228 57.7755 20.4602 56.3973C18.3976 55.0191 16.79 53.0603 15.8407 50.7684C14.8914 48.4766 14.643 45.9547 15.127 43.5217C15.6109 41.0888 16.8055 38.8539 18.5596 37.0998C20.3137 35.3457 22.5485 34.1512 24.9815 33.6672C27.4145 33.1833 29.9364 33.4316 32.2282 34.3809C34.5201 35.3303 36.4789 36.9379 37.8571 39.0004C39.2353 41.063 39.9709 43.488 39.9709 45.9687C39.9671 49.294 38.6445 52.482 36.2931 54.8333C33.9418 57.1847 30.7538 58.5073 27.4284 58.5111ZM27.4284 33.7563C25.0131 33.7563 22.6519 34.4725 20.6436 35.8144C18.6353 37.1563 17.07 39.0637 16.1457 41.2952C15.2213 43.5267 14.9795 45.9822 15.4507 48.3512C15.9219 50.7201 17.085 52.8962 18.793 54.6041C20.5009 56.312 22.677 57.4752 25.0459 57.9464C27.4149 58.4176 29.8704 58.1757 32.1019 57.2514C34.3334 56.3271 36.2408 54.7618 37.5827 52.7535C38.9246 50.7452 39.6408 48.384 39.6408 45.9687C39.6372 42.7309 38.3493 39.6267 36.0599 37.3372C33.7704 35.0478 30.6663 33.7599 27.4284 33.7563Z" fill="#3F3D56"/>
<path d="M139.32 5.37067H97.2371V5.70073H139.32V5.37067Z" fill="#3F3D56"/>
<path d="M188.5 92.5078H67.5315V92.8378H188.5V92.5078Z" fill="#3F3D56"/>
<path d="M74.3803 107.691H32.2971V108.021H74.3803V107.691Z" fill="#3F3D56"/>
<path d="M82.8511 90.7678H78.2302V95.3887H82.8511V90.7678Z" fill="#F5F5F6"/>
<path d="M85.6568 92.7482H80.0457V87.1371H85.6568V92.7482ZM80.2896 92.5042H85.4128V87.381H80.2896V92.5042Z" fill="#3F3D56"/>
<path d="M136.487 3.63074H131.866V8.25164H136.487V3.63074Z" fill="#F5F5F6"/>
<path d="M139.292 5.6111H133.681V0H139.292V5.6111ZM133.925 5.36714H139.048V0.243961H133.925V5.36714Z" fill="#3F3D56"/>
<path d="M183.026 90.7678H178.405V95.3887H183.026V90.7678Z" fill="#F5F5F6"/>
<path d="M185.831 92.7482H180.22V87.1371H185.831V92.7482ZM180.464 92.5042H185.587V87.381H180.464V92.5042Z" fill="#3F3D56"/>
<path d="M174.967 38.2806H174.575V27.5268C174.575 26.7095 174.414 25.9002 174.101 25.145C173.788 24.3899 173.33 23.7038 172.752 23.1258C172.174 22.5479 171.488 22.0894 170.733 21.7766C169.977 21.4638 169.168 21.3029 168.351 21.3029H145.568C144.75 21.3029 143.941 21.4638 143.186 21.7766C142.431 22.0894 141.744 22.5479 141.166 23.1258C140.589 23.7038 140.13 24.3899 139.817 25.145C139.504 25.9002 139.344 26.7095 139.344 27.5268V86.5228C139.344 87.3401 139.504 88.1495 139.817 88.9046C140.13 89.6598 140.589 90.3459 141.166 90.9238C141.744 91.5018 142.431 91.9602 143.186 92.273C143.941 92.5858 144.75 92.7468 145.568 92.7468H168.351C169.168 92.7468 169.977 92.5858 170.733 92.273C171.488 91.9602 172.174 91.5018 172.752 90.9238C173.33 90.3459 173.788 89.6598 174.101 88.9046C174.414 88.1495 174.575 87.3401 174.575 86.5228V45.9353H174.967V38.2806Z" fill="#3F3D56"/>
<path d="M173.249 27.8927V86.8026C173.25 88.0354 172.76 89.2177 171.889 90.0896C171.017 90.9614 169.835 91.4514 168.602 91.4516H145.709C144.476 91.4513 143.294 90.9614 142.422 90.0896C141.551 89.2177 141.061 88.0354 141.062 86.8026V27.8927C141.062 26.6602 141.551 25.4782 142.423 24.6067C143.294 23.7352 144.476 23.2455 145.709 23.2454H148.486C148.35 23.5806 148.298 23.9444 148.335 24.3046C148.372 24.6648 148.497 25.0103 148.699 25.3108C148.901 25.6113 149.173 25.8575 149.493 26.0277C149.812 26.1979 150.169 26.2869 150.531 26.2869H163.583C163.946 26.2869 164.302 26.1979 164.622 26.0277C164.941 25.8575 165.214 25.6113 165.416 25.3108C165.618 25.0103 165.743 24.6648 165.78 24.3046C165.817 23.9444 165.765 23.5806 165.628 23.2454H168.602C169.835 23.2455 171.017 23.7352 171.888 24.6067C172.76 25.4782 173.249 26.6602 173.249 27.8927Z" fill="#F5F5F6"/>
<path d="M160.565 62.0881H153.746V64.109H160.565V62.0881Z" fill="#3F3D56"/>
<path d="M168.81 46.3535H145.501V47.2196H168.81V46.3535Z" fill="#3F3D56"/>
<path d="M168.81 49.0962H145.501V49.9623H168.81V49.0962Z" fill="#3F3D56"/>
<path d="M168.81 51.8389H145.501V52.7051H168.81V51.8389Z" fill="#3F3D56"/>
<path d="M168.81 54.5817H145.501V55.4478H168.81V54.5817Z" fill="#3F3D56"/>
<path d="M168.81 57.3244H145.501V58.1905H168.81V57.3244Z" fill="#3F3D56"/>
<path d="M157.97 34.8513H153.928V38.8932H157.97V34.8513Z" fill="#2D65B0"/>
<path d="M155.475 35.8621V40.7701H160.383V35.8621H155.475ZM160.17 40.5572H155.688V36.075H160.17V40.5572Z" fill="#3F3D56"/>
<path opacity="0.1" d="M173.249 80.5115V86.8025C173.25 88.0353 172.76 89.2177 171.889 90.0895C171.017 90.9614 169.835 91.4513 168.602 91.4515H145.709C144.476 91.4513 143.294 90.9614 142.422 90.0895C141.551 89.2177 141.061 88.0353 141.062 86.8025V55.0817L160.349 70.3191L160.679 70.5799L164.267 73.4135L164.602 73.6792L173.249 80.5115Z" fill="black"/>
<path d="M155.175 89.5424C159.173 89.5424 162.415 86.3011 162.415 82.3027C162.415 78.3044 159.173 75.0631 155.175 75.0631C151.177 75.0631 147.936 78.3044 147.936 82.3027C147.936 86.3011 151.177 89.5424 155.175 89.5424Z" fill="#2D65B0"/>
<path d="M53.3385 108.021C50.4988 108.021 47.7229 107.179 45.3618 105.601C43.0006 104.023 41.1604 101.781 40.0736 99.1575C38.9869 96.5339 38.7026 93.6471 39.2566 90.8619C39.8106 88.0768 41.178 85.5185 43.186 83.5105C45.194 81.5025 47.7523 80.1351 50.5375 79.5811C53.3226 79.0271 56.2095 79.3114 58.833 80.3981C61.4566 81.4848 63.699 83.3251 65.2766 85.6862C66.8543 88.0473 67.6964 90.8233 67.6964 93.663C67.692 97.4696 66.178 101.119 63.4863 103.811C60.7946 106.502 57.1451 108.016 53.3385 108.021ZM53.3385 79.6352C50.5641 79.6352 47.852 80.458 45.5451 81.9993C43.2383 83.5407 41.4403 85.7316 40.3786 88.2948C39.3169 90.858 39.0391 93.6786 39.5803 96.3997C40.1216 99.1208 41.4576 101.62 43.4194 103.582C45.3812 105.544 47.8807 106.88 50.6019 107.421C53.323 107.962 56.1435 107.685 58.7067 106.623C61.27 105.561 63.4608 103.763 65.0022 101.456C66.5436 99.1495 67.3663 96.4374 67.3663 93.663C67.3621 89.9439 65.8828 86.3783 63.253 83.7485C60.6232 81.1187 57.0576 79.6395 53.3385 79.6352Z" fill="#3F3D56"/>
<path d="M157.309 87.8868C155.514 87.8868 153.759 87.3545 152.266 86.3571C150.773 85.3598 149.61 83.9422 148.923 82.2836C148.236 80.625 148.056 78.8 148.407 77.0393C148.757 75.2785 149.621 73.6612 150.891 72.3918C152.16 71.1224 153.777 70.2579 155.538 69.9077C157.299 69.5575 159.124 69.7372 160.782 70.4242C162.441 71.1112 163.859 72.2746 164.856 73.7673C165.853 75.2599 166.386 77.0148 166.386 78.8101C166.383 81.2165 165.426 83.5237 163.724 85.2253C162.023 86.9269 159.715 87.8841 157.309 87.8868ZM157.309 70.0633C155.579 70.0633 153.888 70.5763 152.45 71.5374C151.011 72.4985 149.89 73.8646 149.228 75.4628C148.566 77.0611 148.393 78.8198 148.73 80.5165C149.068 82.2132 149.901 83.7717 151.124 84.9949C152.347 86.2182 153.906 87.0512 155.603 87.3887C157.299 87.7262 159.058 87.553 160.656 86.891C162.254 86.229 163.62 85.1079 164.582 83.6695C165.543 82.2311 166.056 80.54 166.056 78.8101C166.053 76.4911 165.131 74.2678 163.491 72.6281C161.851 70.9883 159.628 70.0659 157.309 70.0633Z" fill="#3F3D56"/>
</g>
<defs>
<clipPath id="clip0_98_1339">
<rect width="188" height="108.021" fill="white" transform="translate(0.5)"/>
</clipPath>
</defs>
</svg>